<svg width="150" height="150" viewBox="0 0 150 150" fill="none" xmlns="http://www.w3.org/2000/svg">
<rect width="150" height="150" rx="32" fill="#2548A8"/>
<path d="M105.254 26.2302C103.971 25.6817 102.479 26.1396 101.729 27.3235L67.6276 81.5072C67.3562 81.9371 67.205 82.432 67.1899 82.9403C67.1748 83.4485 67.2963 83.9515 67.5418 84.3969C67.7873 84.8422 68.1477 85.2135 68.5855 85.4721C69.0234 85.7306 69.5226 85.867 70.031 85.867H92.7905L84.3261 119.459C83.9847 120.816 84.6758 122.217 85.9607 122.77C87.2372 123.319 88.7386 122.859 89.4853 121.676L123.587 67.4927C123.858 67.0628 124.01 66.5679 124.025 66.0596C124.04 65.5513 123.918 65.0483 123.673 64.603C123.427 64.1577 123.067 63.7864 122.629 63.5278C122.191 63.2692 121.692 63.1328 121.183 63.1328H98.424L106.888 29.5411C107.23 28.1838 106.539 26.7825 105.254 26.2302Z" fill="white"/>
<path d="M43.772 26.2302C45.0552 25.6817 46.5471 26.1396 47.2966 27.3235L81.3982 81.5072C81.6697 81.9371 81.8209 82.432 81.836 82.9403C81.8511 83.4485 81.7296 83.9515 81.4841 84.3969C81.2386 84.8422 80.8782 85.2135 80.4403 85.4721C80.0025 85.7306 79.5033 85.867 78.9948 85.867H56.2354L64.6998 119.459C65.0412 120.816 64.3501 122.217 63.0652 122.77C61.7887 123.319 60.2873 122.859 59.5406 121.676L25.439 67.4927C25.1675 67.0628 25.0164 66.5679 25.0013 66.0596C24.9862 65.5513 25.1077 65.0483 25.3532 64.603C25.5986 64.1577 25.9591 63.7864 26.3969 63.5278C26.8347 63.2692 27.3339 63.1328 27.8424 63.1328H50.6018L42.1374 29.5411C41.796 28.1838 42.487 26.7825 43.772 26.2302Z" fill="white"/>
</svg>
